<svg width="1167" height="839" viewBox="0 0 1167 839" fill="none" xmlns="http://www.w3.org/2000/svg">
<g clip-path="url(#clip0_1_28)">
<path d="M552.416 829.838H0V832.244H552.416V829.838Z" fill="#3F3D56"/>
<path d="M140.425 821.45H156.131L163.604 760.75H140.422L140.425 821.45Z" fill="#FFB8B8"/>
<path d="M186.424 836.061L137.059 836.063L137.059 816.954L167.35 816.953C172.409 816.952 177.26 818.965 180.837 822.549C184.414 826.132 186.424 830.993 186.424 836.061L186.424 836.061Z" fill="#2F2E41"/>
<path d="M56.8569 818.424L72.427 820.504L87.842 761.326L64.8642 758.257L56.8569 818.424Z" fill="#FFB8B8"/>
<path d="M100.525 839L51.5936 832.463L54.1142 813.522L84.1403 817.533C89.1542 818.203 93.6973 820.841 96.77 824.867C99.8428 828.892 101.193 833.976 100.525 839Z" fill="#2F2E41"/>
<path d="M79.171 570.754L167.572 574.605L163.728 799.241L140.667 796.673L122.731 643.921L80.4521 806.942L57.3911 803.091L79.171 570.754Z" fill="#2F2E41"/>
<path d="M138.105 437.256L107.357 430.962L88.1396 572.037C88.1396 572.037 144.511 609.262 162.447 570.753L138.105 437.256Z" fill="#6C63FF"/>
<path d="M124.693 420.687C142.072 420.687 156.16 406.572 156.16 389.16C156.16 371.748 142.072 357.633 124.693 357.633C107.315 357.633 93.2266 371.748 93.2266 389.16C93.2266 406.572 107.315 420.687 124.693 420.687Z" fill="#FFB8B8"/>
<path d="M107.357 429.554L62.5162 443.674C62.5162 443.674 84.296 552.783 48.4233 609.262C48.4233 609.262 93.2642 656.757 112.482 550.215C112.482 550.215 127.856 464.212 107.357 429.554Z" fill="#2F2E41"/>
<path d="M138.105 437.256L171.415 457.794C171.415 457.794 189.352 607.979 171.415 622.099C153.479 636.219 138.105 437.256 138.105 437.256Z" fill="#2F2E41"/>
<path d="M185.265 643.878C183.9 642.578 182.835 640.994 182.147 639.238C181.459 637.481 181.164 635.595 181.282 633.711C181.4 631.828 181.929 629.993 182.832 628.337C183.734 626.681 184.988 625.243 186.505 624.125L172.962 580.307L195.809 586.956L205.167 627.547C206.873 630.225 207.539 633.437 207.04 636.574C206.54 639.711 204.909 642.556 202.456 644.569C200.003 646.582 196.898 647.624 193.729 647.497C190.561 647.369 187.549 646.082 185.265 643.878Z" fill="#FFB8B8"/>
<path d="M70.1848 631.206C68.6647 630.092 67.4069 628.657 66.5001 627.003C65.5932 625.349 65.0593 623.516 64.9359 621.633C64.8126 619.75 65.1028 617.863 65.7862 616.105C66.4696 614.346 67.5294 612.759 68.8911 611.455L49.8613 569.735L73.3695 573.399L87.8364 612.456C89.8707 614.893 90.942 617.993 90.8473 621.169C90.7526 624.344 89.4986 627.375 87.3228 629.686C85.147 631.997 82.2006 633.429 79.042 633.709C75.8833 633.989 72.7319 633.098 70.1848 631.206H70.1848Z" fill="#FFB8B8"/>
<path d="M74.0462 444.958L62.5157 443.675L33.0488 539.947L62.5157 606.696L85.5767 592.576L59.9533 537.38L80.452 478.333L74.0462 444.958Z" fill="#2F2E41"/>
<path d="M165.009 456.511L171.415 457.794L202.163 607.979L181.664 614.398L157.322 525.827L165.009 456.511Z" fill="#2F2E41"/>
<path d="M103.07 402.106C103.495 399.008 104.715 396.073 106.611 393.59C108.507 391.106 111.015 389.159 113.889 387.939C119.946 385.451 126.778 386.502 133.307 386.977C139.836 387.453 147.105 387.04 151.817 382.487C156.121 378.327 157.089 371.424 155.011 365.805C152.932 360.187 148.226 355.825 142.879 353.141C137.43 350.637 131.592 349.092 125.621 348.571C116.895 347.515 107.934 347.38 99.4293 349.603C90.9245 351.827 93.1174 356.592 88.1335 363.845C83.1496 371.099 81.6566 380.982 85.4564 388.923C87.9989 394.236 92.5552 398.258 96.992 402.126" fill="#2F2E41"/>
<path d="M806.928 750.033L806.927 747.627C811.703 747.626 816.55 747.527 821.337 747.335L821.433 749.739C816.615 749.933 811.735 750.032 806.928 750.033ZM792.427 749.755C787.626 749.567 782.754 749.279 777.948 748.899L778.137 746.5C782.912 746.878 787.751 747.164 792.521 747.351L792.427 749.755ZM835.912 748.868L835.721 746.468C840.487 746.086 845.311 745.601 850.057 745.027L850.345 747.416C845.567 747.994 840.711 748.482 835.912 748.868ZM763.513 747.465C758.724 746.89 753.891 746.212 749.147 745.449L749.528 743.074C754.24 743.832 759.041 744.505 763.798 745.075L763.513 747.465ZM864.707 745.385L864.324 743.009C869.034 742.246 873.803 741.373 878.499 740.417L878.977 742.774C874.251 743.739 869.45 744.616 864.708 745.385H864.707ZM734.875 742.855C730.148 741.896 725.386 740.828 720.718 739.684L721.289 737.345C725.926 738.484 730.656 739.544 735.351 740.496L734.875 742.855ZM893.131 739.586L892.556 737.25C897.207 736.103 901.89 734.847 906.475 733.516L907.144 735.828C902.527 737.168 897.812 738.432 893.131 739.586ZM706.701 735.94C702.069 734.6 697.408 733.15 692.847 731.63L693.606 729.346C698.136 730.857 702.767 732.298 707.367 733.628L706.701 735.94ZM920.992 731.501L920.231 729.219C924.765 727.701 929.33 726.069 933.802 724.366L934.656 726.615C930.153 728.329 925.556 729.973 920.992 731.501ZM679.141 726.746C674.636 725.035 670.097 723.206 665.651 721.309L666.592 719.095C671.008 720.98 675.517 722.796 679.993 724.494L679.141 726.746ZM948.072 721.196L947.129 718.982C951.52 717.103 955.928 715.112 960.231 713.061L961.263 715.235C956.931 717.298 952.492 719.304 948.072 721.196ZM652.395 715.33C648.032 713.255 643.658 711.065 639.395 708.82L640.513 706.69C644.747 708.919 649.091 711.095 653.425 713.156L652.395 715.33ZM974.209 708.743L973.09 706.614C977.321 704.384 981.558 702.04 985.684 699.648L986.887 701.731C982.733 704.138 978.468 706.498 974.209 708.743H974.209ZM626.673 701.789C622.488 699.365 618.307 696.83 614.248 694.253L615.533 692.22C619.565 694.779 623.718 697.298 627.875 699.707L626.673 701.789ZM999.277 694.211L997.992 692.178C1002.02 689.622 1006.06 686.944 1009.99 684.217L1011.36 686.196C1007.39 688.942 1003.33 691.638 999.277 694.211H999.277ZM602.138 686.224C598.167 683.474 594.205 680.612 590.363 677.716L591.807 675.793C595.624 678.67 599.559 681.513 603.504 684.245L602.138 686.224ZM1023.11 677.7L1021.67 675.778C1025.48 672.909 1029.29 669.914 1033 666.875L1034.52 668.738C1030.78 671.797 1026.94 674.812 1023.11 677.7ZM578.941 668.741C575.212 665.688 571.494 662.518 567.889 659.317L569.482 657.517C573.063 660.696 576.757 663.846 580.461 666.877L578.941 668.741ZM1045.56 659.323L1043.97 657.523C1047.55 654.346 1051.11 651.052 1054.56 647.735L1056.22 649.472C1052.75 652.81 1049.16 656.125 1045.56 659.323H1045.56ZM557.225 649.461C553.761 646.127 550.308 642.67 546.966 639.187L548.697 637.518C552.018 640.979 555.447 644.413 558.889 647.725L557.225 649.461ZM1066.48 639.196L1064.75 637.528C1068.06 634.078 1071.35 630.509 1074.53 626.92L1076.33 628.518C1073.13 632.13 1069.81 635.723 1066.48 639.196V639.196ZM537.126 628.513C533.924 624.897 530.76 621.175 527.722 617.453L529.582 615.93C532.599 619.628 535.742 623.324 538.923 626.915L537.126 628.513ZM1085.74 617.45L1083.88 615.928C1086.91 612.21 1089.91 608.386 1092.78 604.564L1094.7 606.012C1091.81 609.86 1088.79 613.708 1085.74 617.45V617.45ZM518.771 606.029C515.876 602.179 513.021 598.219 510.285 594.258L512.26 592.888C514.978 596.823 517.814 600.757 520.689 604.582L518.771 606.029ZM1103.2 594.218L1101.22 592.85C1103.95 588.898 1106.63 584.844 1109.19 580.802L1111.22 582.09C1108.64 586.159 1105.95 590.239 1103.2 594.218V594.218ZM502.279 582.158C499.706 578.092 497.179 573.917 494.767 569.748L496.845 568.543C499.24 572.684 501.751 576.83 504.307 580.869L502.279 582.158ZM1118.75 569.645L1116.67 568.439C1119.08 564.276 1121.42 560.017 1123.65 555.781L1125.77 556.902C1123.53 561.166 1121.17 565.454 1118.75 569.645H1118.75ZM487.762 557.048C485.525 552.791 483.342 548.428 481.276 544.08L483.444 543.046C485.497 547.364 487.665 551.698 489.887 555.927L487.762 557.048ZM1132.28 543.882L1130.11 542.848C1132.16 538.514 1134.16 534.077 1136.04 529.659L1138.25 530.604C1136.36 535.051 1134.35 539.519 1132.28 543.882ZM475.319 530.868C473.427 526.436 471.605 521.915 469.901 517.428L472.146 516.573C473.838 521.028 475.648 525.52 477.527 529.921L475.319 530.868ZM1143.69 517.089L1141.44 516.236C1143.14 511.734 1144.78 507.146 1146.29 502.6L1148.57 503.361C1147.04 507.939 1145.4 512.557 1143.69 517.089ZM465.018 503.742C463.489 499.167 462.033 494.499 460.692 489.868L462.999 489.199C464.331 493.798 465.777 498.434 467.295 502.978L465.018 503.742ZM1152.88 489.481L1150.57 488.813C1151.9 484.221 1153.15 479.529 1154.29 474.866L1156.62 475.439C1155.47 480.135 1154.21 484.859 1152.88 489.481V489.481ZM456.932 475.831C455.778 471.145 454.706 466.375 453.743 461.653L456.097 461.171C457.052 465.862 458.118 470.601 459.264 475.255L456.932 475.831ZM1159.79 461.259L1157.44 460.78C1158.39 456.093 1159.26 451.314 1160.02 446.577L1162.39 446.96C1161.62 451.729 1160.75 456.539 1159.79 461.259V461.259ZM451.129 447.357C450.359 442.606 449.675 437.765 449.094 432.967L451.478 432.678C452.055 437.444 452.736 442.252 453.501 446.971L451.129 447.357ZM1164.41 432.565L1162.03 432.279C1162.6 427.515 1163.08 422.682 1163.46 417.915L1165.85 418.105C1165.47 422.905 1164.99 427.77 1164.41 432.565V432.565ZM447.638 418.509C447.251 413.702 446.955 408.821 446.76 404.001L449.159 403.903C449.353 408.691 449.647 413.54 450.032 418.315L447.638 418.509ZM1166.71 403.599L1164.31 403.504C1164.5 398.709 1164.6 393.853 1164.6 389.07L1164.6 388.273H1167L1167 389.065C1167 393.884 1166.9 398.772 1166.71 403.599H1166.71ZM448.858 389.469H446.457L446.457 389.065C446.457 384.37 446.548 379.616 446.728 374.94L449.127 375.033C448.949 379.679 448.859 384.401 448.859 389.07L448.858 389.469ZM1164.28 373.842C1164.08 369.063 1163.78 364.215 1163.39 359.431L1165.79 359.235C1166.18 364.051 1166.48 368.931 1166.68 373.742L1164.28 373.842ZM449.969 360.621L447.574 360.433C447.952 355.614 448.432 350.749 448.999 345.97L451.385 346.254C450.82 351.001 450.344 355.835 449.969 360.621ZM1161.93 345.069C1161.35 340.323 1160.67 335.515 1159.89 330.779L1162.26 330.39C1163.04 335.158 1163.73 339.999 1164.31 344.778L1161.93 345.069ZM453.374 331.957L451.002 331.576C451.763 326.811 452.632 321.999 453.585 317.274L455.938 317.75C454.993 322.444 454.13 327.223 453.374 331.957ZM1157.28 316.581C1156.32 311.878 1155.25 307.142 1154.1 302.501L1156.43 301.922C1157.59 306.594 1158.66 311.363 1159.63 316.097L1157.28 316.581ZM459.074 303.66L456.741 303.089C457.883 298.405 459.138 293.679 460.47 289.041L462.778 289.707C461.454 294.314 460.208 299.008 459.074 303.66H459.074ZM1150.35 288.562C1149.01 283.966 1147.56 279.331 1146.04 274.787L1148.31 274.021C1149.85 278.596 1151.31 283.262 1152.65 287.889L1150.35 288.562ZM467.043 275.918L464.764 275.159C466.284 270.577 467.921 265.956 469.63 261.425L471.877 262.276C470.179 266.777 468.553 271.366 467.043 275.918ZM1141.17 261.198C1139.46 256.721 1137.65 252.232 1135.77 247.854L1137.98 246.906C1139.87 251.314 1141.7 255.833 1143.41 260.339L1141.17 261.198ZM477.26 248.846L475.049 247.904C476.937 243.458 478.942 238.988 481.009 234.62L483.179 235.651C481.126 239.99 479.134 244.43 477.26 248.846ZM1129.84 234.735C1127.79 230.422 1125.61 226.091 1123.39 221.862L1125.51 220.738C1127.75 224.996 1129.94 229.355 1132.01 233.699L1129.84 234.735ZM489.627 222.71L487.5 221.592C489.738 217.317 492.097 213.027 494.509 208.841L496.589 210.044C494.193 214.202 491.851 218.464 489.627 222.71L489.627 222.71ZM1116.41 209.257C1114.01 205.114 1111.5 200.97 1108.94 196.938L1110.96 195.647C1113.54 199.706 1116.07 203.878 1118.49 208.048L1116.41 209.257ZM504.054 197.674L502.024 196.387C504.601 192.306 507.295 188.222 510.032 184.25L512.008 185.617C509.289 189.563 506.614 193.619 504.054 197.674V197.674ZM1100.97 184.926C1098.25 180.993 1095.41 177.061 1092.53 173.243L1094.45 171.793C1097.34 175.637 1100.2 179.595 1102.94 183.555L1100.97 184.926ZM520.438 173.893L518.518 172.448C521.412 168.588 524.423 164.736 527.467 160.998L529.328 162.52C526.304 166.232 523.313 170.059 520.438 173.893L520.438 173.893ZM1083.63 161.904C1080.6 158.201 1077.45 154.508 1074.27 150.929L1076.07 149.33C1079.26 152.933 1082.43 156.65 1085.48 160.379L1083.63 161.904ZM538.665 151.515L536.867 149.92C540.056 146.311 543.364 142.714 546.699 139.23L548.433 140.896C545.12 144.357 541.834 147.93 538.665 151.515V151.515ZM1064.49 140.335C1061.16 136.88 1057.73 133.45 1054.28 130.14L1055.94 128.402C1059.41 131.734 1062.87 135.187 1066.22 138.665L1064.49 140.335ZM558.613 130.679L556.948 128.945C560.414 125.603 563.997 122.285 567.597 119.081L569.192 120.88C565.615 124.063 562.056 127.36 558.613 130.679L558.613 130.679ZM1043.68 120.359C1040.09 117.18 1036.39 114.035 1032.69 111.011L1034.21 109.146C1037.94 112.19 1041.66 115.356 1045.27 118.557L1043.68 120.359ZM580.152 111.515L578.63 109.654C582.356 106.596 586.191 103.577 590.027 100.679L591.473 102.6C587.662 105.478 583.853 108.478 580.152 111.515L580.152 111.515ZM1021.33 102.11C1017.5 99.2285 1013.56 96.3891 1009.63 93.6701L1010.99 91.6891C1014.95 94.4263 1018.92 97.2845 1022.78 100.185L1021.33 102.11ZM603.141 94.1466L601.772 92.1691C605.731 89.4201 609.793 86.7193 613.845 84.1413L615.133 86.173C611.108 88.7332 607.073 91.4158 603.141 94.1465V94.1466ZM997.589 85.7065C993.54 83.1438 989.385 80.6298 985.238 78.2346L986.439 76.1501C990.612 78.5612 994.795 81.0922 998.872 83.6719L997.589 85.7065ZM627.432 78.6911L626.227 76.6089C630.379 74.196 634.642 71.8319 638.896 69.5835L640.017 71.7115C635.791 73.9451 631.557 76.2934 627.432 78.691V78.6911ZM972.594 71.2656C968.353 69.0389 964.006 66.8681 959.675 64.8136L960.703 62.6386C965.063 64.7066 969.44 66.8921 973.709 69.1341L972.594 71.2656ZM652.868 65.2494L651.834 63.0768C656.165 61.0082 660.601 58.9978 665.02 57.1013L665.965 59.3133C661.576 61.1967 657.17 63.1937 652.868 65.2494V65.2494ZM946.502 58.8897C942.087 57.0114 937.577 55.2001 933.095 53.5046L933.944 51.2533C938.455 52.96 942.997 54.7842 947.44 56.6748L946.502 58.8897ZM679.286 53.9141L678.431 51.6651C682.925 49.9484 687.52 48.2999 692.087 46.7648L692.851 49.0466C688.314 50.5711 683.75 52.2091 679.286 53.914V53.9141ZM919.475 48.6682C914.937 47.1601 910.306 45.7248 905.71 44.4023L906.373 42.0899C911 43.4212 915.662 44.8659 920.231 46.384L919.475 48.6682ZM706.603 44.7331L705.932 42.423C710.551 41.0765 715.265 39.8063 719.941 38.6471L720.518 40.983C715.873 42.1345 711.191 43.3964 706.603 44.733V44.7331ZM891.782 40.6998C887.145 39.5666 882.413 38.512 877.717 37.5655L878.191 35.2061C882.918 36.159 887.682 37.2212 892.351 38.3616L891.782 40.6998ZM734.572 37.8028L734.09 35.4457C738.798 34.4798 743.598 33.5962 748.357 32.819L748.744 35.1937C744.017 35.9662 739.249 36.844 734.572 37.8028ZM863.537 35.0039C858.814 34.2495 854.012 33.581 849.265 33.0181L849.547 30.6281C854.326 31.1951 859.16 31.8678 863.915 32.628L863.537 35.0039ZM763.008 33.1597L762.717 30.7709C767.495 30.1881 772.35 29.6939 777.148 29.3039L777.343 31.7021C772.577 32.0904 767.754 32.5804 763.008 33.1597H763.008ZM834.925 31.6081C830.164 31.2362 825.324 30.9554 820.54 30.7738L820.632 28.3686C825.447 28.5519 830.319 28.8345 835.112 29.2087L834.925 31.6081ZM791.726 30.8202L791.628 28.4162C796.43 28.2176 801.309 28.113 806.13 28.1048L806.133 30.5112C801.345 30.5195 796.498 30.6234 791.726 30.8202H791.726Z" fill="#CCCCCC"/>
<path d="M679.51 614.339C807.516 614.339 911.285 510.37 911.285 382.118C911.285 253.867 807.516 149.898 679.51 149.898C551.504 149.898 447.735 253.867 447.735 382.118C447.735 510.37 551.504 614.339 679.51 614.339Z" fill="#3F3D56"/>
<path d="M597.248 551.772C665.23 551.772 720.341 475.815 720.341 382.118C720.341 288.422 665.23 212.465 597.248 212.465C529.266 212.465 474.155 288.422 474.155 382.118C474.155 475.815 529.266 551.772 597.248 551.772Z" fill="white"/>
<path d="M556.444 472.205C575.417 472.205 590.797 447.963 590.797 418.06C590.797 388.157 575.417 363.915 556.444 363.915C537.471 363.915 522.09 388.157 522.09 418.06C522.09 447.963 537.471 472.205 556.444 472.205Z" fill="#3F3D56"/>
<path d="M1134.88 275.293C1147.48 275.293 1157.7 265.058 1157.7 252.432C1157.7 239.806 1147.48 229.571 1134.88 229.571C1122.28 229.571 1112.06 239.806 1112.06 252.432C1112.06 265.058 1122.28 275.293 1134.88 275.293Z" fill="#6C63FF"/>
<path d="M871.312 67.38C889.883 67.38 904.937 52.2965 904.937 33.69C904.937 15.0835 889.883 0 871.312 0C852.741 0 837.687 15.0835 837.687 33.69C837.687 52.2965 852.741 67.38 871.312 67.38Z" fill="#6C63FF"/>
<path d="M849.035 769.102C861.637 769.102 871.852 758.866 871.852 746.241C871.852 733.615 861.637 723.38 849.035 723.38C836.433 723.38 826.218 733.615 826.218 746.241C826.218 758.866 836.433 769.102 849.035 769.102Z" fill="#6C63FF"/>
</g>
<defs>
<clipPath id="clip0_1_28">
<rect width="1167" height="839" fill="white"/>
</clipPath>
</defs>
</svg>
