<svg width="656" height="505" viewBox="0 0 656 505" fill="none" xmlns="http://www.w3.org/2000/svg">
<g clip-path="url(#clip0_3_7)">
<path d="M431.995 495.424L445.384 495.423L451.754 443.778L431.992 443.779L431.995 495.424Z" fill="#A0616A"/>
<path d="M477.868 495.121C478.285 495.823 478.505 498.089 478.505 498.905C478.505 501.415 476.471 503.45 473.961 503.45H432.496C430.784 503.45 429.396 502.062 429.396 500.35V498.623C429.396 498.623 427.344 493.435 431.568 487.04C431.568 487.04 436.816 492.047 444.659 484.204L446.972 480.014L463.714 492.258L472.994 493.401C475.024 493.651 476.824 493.362 477.868 495.121H477.868V495.121Z" fill="#2F2E41"/>
<path d="M472.831 481.801L485.474 486.208L508.491 439.539L489.831 433.034L472.831 481.801Z" fill="#A0616A"/>
<path d="M516.247 496.617C516.409 497.417 515.871 499.629 515.602 500.4C514.776 502.77 512.185 504.022 509.815 503.195L470.661 489.544C469.045 488.98 468.191 487.212 468.755 485.595L469.323 483.965C469.323 483.965 469.094 478.391 475.188 473.743C475.188 473.743 478.495 480.199 488.483 475.375L492.046 472.181L503.824 489.254L512.21 493.388C514.045 494.292 515.839 494.612 516.246 496.617L516.247 496.617L516.247 496.617Z" fill="#2F2E41"/>
<path d="M56.0809 177H4.08087C1.8753 177 0.0808716 175.206 0.0808716 173C0.0808716 170.794 1.8753 169 4.08087 169H56.0809C58.2864 169 60.0809 170.794 60.0809 173C60.0809 175.206 58.2864 177 56.0809 177Z" fill="#E6E6E6"/>
<path d="M195.081 138.571H0V139.571H195.081V138.571Z" fill="#E6E6E6"/>
<path d="M135.081 247H83.0809C80.8753 247 79.0809 245.206 79.0809 243C79.0809 240.794 80.8753 239 83.0809 239H135.081C137.286 239 139.081 240.794 139.081 243C139.081 245.206 137.286 247 135.081 247Z" fill="#E6E6E6"/>
<path d="M274.081 208.571H79V209.571H274.081V208.571Z" fill="#E6E6E6"/>
<path d="M62.0809 339H10.0809C7.8753 339 6.08087 337.206 6.08087 335C6.08087 332.794 7.8753 331 10.0809 331H62.0809C64.2864 331 66.0809 332.794 66.0809 335C66.0809 337.206 64.2864 339 62.0809 339Z" fill="#E6E6E6"/>
<path d="M201.081 300.571H6V301.571H201.081V300.571Z" fill="#E6E6E6"/>
<path d="M178.836 305.047L170.606 301.148C173.981 305.859 176.89 313.216 178.447 319.071C181.084 313.617 185.334 306.945 189.541 302.959L180.843 305.197C186.203 278.929 206.362 260.071 229.447 260.071V258.071C205.334 258.071 184.308 277.719 178.836 305.047Z" fill="#3F3D56"/>
<path d="M216.715 345.071H164.715C162.509 345.071 160.715 343.276 160.715 341.071C160.715 338.865 162.509 337.071 164.715 337.071H216.715C218.92 337.071 220.715 338.865 220.715 341.071C220.715 343.276 218.92 345.071 216.715 345.071Z" fill="#6C63FF"/>
<path d="M554.021 269.144L545.791 265.246C549.166 269.957 552.075 277.314 553.632 283.168C556.268 277.715 560.519 271.042 564.726 267.056L556.028 269.294C561.387 243.026 581.547 224.168 604.632 224.168V222.168C580.519 222.168 559.493 241.816 554.021 269.144Z" fill="#3F3D56"/>
<path d="M591.9 309.168H539.9C537.694 309.168 535.9 307.374 535.9 305.168C535.9 302.963 537.694 301.168 539.9 301.168H591.9C594.105 301.168 595.9 302.963 595.9 305.168C595.9 307.374 594.105 309.168 591.9 309.168Z" fill="#6C63FF"/>
<path d="M496.898 193L407.898 206L429.898 473L454.898 472L462.898 290L495.898 371L475.898 471L500.898 470.024L530.898 370L510.898 256L496.898 193Z" fill="#2F2E41"/>
<path d="M470.898 62H438.504L412.221 207.955C412.221 207.955 427.869 229.418 458.883 209.209C489.898 189 504.221 205.955 504.221 205.955L470.898 62V62Z" fill="#6C63FF"/>
<path d="M420.221 314.955L450.898 259L452.898 95L438.504 62L429.898 76L403.898 92.1024L408.937 163.012L407.148 209.071L406.221 232.955C402.98 247.268 408.742 305.81 420.221 314.955Z" fill="#2F2E41"/>
<path d="M471.78 65.6527L503.398 92.5L521.898 251L522.221 250.955C523.918 257.611 524.038 298.216 520.218 303.925L474.398 257.5L460.898 94L471.78 65.6527Z" fill="#2F2E41"/>
<path d="M577.367 227.413C580.379 233.244 579.813 239.524 576.103 241.441C572.392 243.358 566.943 240.185 563.931 234.354C562.612 231.802 561.979 229.164 561.996 226.843L549.543 201.976L561.337 196.381L572.361 221.488C574.263 222.818 576.049 224.861 577.367 227.413V227.413Z" fill="#A0616A"/>
<path d="M477.355 69.8613C477.355 69.8613 500.795 88.7854 508.027 95.3834C511.87 98.8896 537.642 152.991 537.642 152.991L573.439 215.333L554.832 222.4L516.768 164.919L483.898 127L477.355 69.8613V69.8613V69.8613Z" fill="#2F2E41"/>
<path d="M331.428 233.413C328.416 239.244 328.982 245.524 332.693 247.441C336.403 249.358 341.853 246.185 344.865 240.354C346.183 237.802 346.816 235.164 346.799 232.843L359.252 207.976L347.459 202.381L336.434 227.488C334.532 228.818 332.746 230.861 331.428 233.413V233.413Z" fill="#A0616A"/>
<path d="M430.792 74.5029C430.792 74.5029 408.001 86.7853 400.769 93.3834C396.926 96.8896 371.153 158.991 371.153 158.991L335.356 221.333L353.964 228.4L392.027 170.919L417.898 139L430.792 74.5029L430.792 74.5029V74.5029Z" fill="#2F2E41"/>
<path d="M455.419 56.6066C469.842 56.6066 481.534 44.9144 481.534 30.4913C481.534 16.0682 469.842 4.37598 455.419 4.37598C440.995 4.37598 429.303 16.0682 429.303 30.4913C429.303 44.9144 440.995 56.6066 455.419 56.6066Z" fill="#A0616A"/>
<path d="M466.134 1e-05C466.134 1e-05 468.002 7.47206 459.596 0.93402C456.531 -1.45004 452.611 2.38804 449.322 2.80203C443.591 3.52337 439.048 2.97749 439.048 6.53805C439.048 8.81429 436.025 5.35041 434.378 5.60404C431.97 5.97484 430.642 9.34006 430.642 9.34006C426.994 11.6612 424.104 16.8121 429.708 18.6801C424.104 25.2182 429.298 28.5497 429.298 28.5497L434.378 22.4161C437.008 23.8512 440.581 27.5592 441.891 25.4793C445.586 19.6141 456.458 25.7291 460.963 23.2658C465.499 20.7853 468.002 30.8222 468.002 30.8222L470.08 31.9033C470.08 31.9033 468.936 29.8882 474.54 28.0202C477.342 27.0862 478.042 29.8882 478.042 32.9237C478.042 36.3572 477.064 39.7201 475.378 42.7106L470.08 52.1018L472.406 50.6187C477.302 47.4971 480.5 42.531 482.229 36.9881C482.312 36.7207 482.423 36.4791 482.566 36.2725L482.012 31.7562L483.84 33.9024C484.122 33.0987 484.195 32.348 483.88 31.7562C480.513 25.4207 485.748 21.4821 480.144 13.0761C471.838 0.61758 466.134 0 466.134 0H466.134V1e-05H466.134Z" fill="#2F2E41"/>
<path d="M289.56 503.353C289.56 504.013 290.09 504.543 290.75 504.543H654.04C654.7 504.543 655.23 504.013 655.23 503.353C655.23 502.693 654.7 502.163 654.04 502.163H290.75C290.09 502.163 289.56 502.693 289.56 503.353Z" fill="#CCCCCC"/>
<path d="M247.079 249.5H215.716C211.681 249.5 208.398 246.217 208.398 242.181V206.819C208.398 202.783 211.681 199.5 215.716 199.5H247.079C251.114 199.5 254.398 202.783 254.398 206.819V242.181C254.398 246.217 251.114 249.5 247.079 249.5Z" fill="white"/>
<path d="M247.079 249.5H215.716C211.681 249.5 208.398 246.217 208.398 242.181V206.819C208.398 202.783 211.681 199.5 215.716 199.5H247.079C251.114 199.5 254.398 202.783 254.398 206.819C257.912 217.945 257.555 229.8 254.398 242.181C254.398 246.217 251.114 249.5 247.079 249.5ZM215.716 200.5C212.232 200.5 209.398 203.334 209.398 206.819V242.181C209.398 245.666 212.232 248.5 215.716 248.5H247.079C250.563 248.5 253.398 245.666 253.398 242.181V206.819C253.398 203.334 250.563 200.5 247.079 200.5H215.716Z" fill="#3F3D56"/>
<path d="M243.91 221H218.069C216.973 221 216.081 220.108 216.081 219.012C216.081 217.916 216.973 217.024 218.069 217.024H243.91C245.006 217.024 245.898 217.916 245.898 219.012C245.898 220.108 245.006 221 243.91 221Z" fill="#6C63FF"/>
<path d="M243.91 232H218.069C216.973 232 216.081 231.108 216.081 230.012C216.081 228.916 216.973 228.024 218.069 228.024H243.91C245.006 228.024 245.898 228.916 245.898 230.012C245.898 231.108 245.006 232 243.91 232Z" fill="#6C63FF"/>
<path d="M49.2952 154.693H17.9329C13.8973 154.693 10.6141 151.41 10.6141 147.374V112.012C10.6141 107.976 13.8973 104.693 17.9329 104.693H49.2952C53.3309 104.693 56.6141 107.976 56.6141 112.012V147.374C56.6141 151.41 53.3309 154.693 49.2952 154.693Z" fill="white"/>
<path d="M49.2952 154.693H17.9329C13.8973 154.693 10.6141 151.41 10.6141 147.374C9.03704 134.353 8.6026 122.225 10.6141 112.012C10.6141 107.976 13.8973 104.693 17.9329 104.693H49.2952C53.3309 104.693 56.6141 107.976 56.6141 112.012V147.374C56.6141 151.41 53.3309 154.693 49.2952 154.693ZM17.9329 105.693C14.4486 105.693 11.6141 108.527 11.6141 112.012V147.374C11.6141 150.859 14.4486 153.693 17.9329 153.693H49.2952C52.7796 153.693 55.6141 150.859 55.6141 147.374V112.012C55.6141 108.527 52.7796 105.693 49.2952 105.693H17.9329Z" fill="#3F3D56"/>
<path d="M46.1263 126.193H20.2851C19.1891 126.193 18.2974 125.301 18.2974 124.205C18.2974 123.109 19.1891 122.217 20.2851 122.217H46.1263C47.2223 122.217 48.1141 123.109 48.1141 124.205C48.1141 125.301 47.2223 126.193 46.1263 126.193Z" fill="#6C63FF"/>
<path d="M46.1263 137.193H20.2851C19.1891 137.193 18.2974 136.301 18.2974 135.205C18.2974 134.109 19.1891 133.217 20.2851 133.217H46.1263C47.2223 133.217 48.1141 134.109 48.1141 135.205C48.1141 136.301 47.2223 137.193 46.1263 137.193Z" fill="#6C63FF"/>
<path d="M46.1263 115.193H20.2851C19.1891 115.193 18.2974 114.301 18.2974 113.205C18.2974 112.109 19.1891 111.217 20.2851 111.217H46.1263C47.2223 111.217 48.1141 112.109 48.1141 113.205C48.1141 114.301 47.2223 115.193 46.1263 115.193Z" fill="#6C63FF"/>
<path d="M383.945 226.955L360.508 247.795C357.492 250.477 352.857 250.205 350.176 247.189C340.434 239.452 332.443 230.733 326.677 220.763C323.996 217.748 324.268 213.112 327.283 210.431L350.72 189.591C353.736 186.909 358.371 187.181 361.053 190.197L384.551 216.623C387.233 219.638 386.961 224.273 383.945 226.955V226.955Z" fill="white"/>
<path d="M383.945 226.955L360.508 247.795C357.492 250.477 352.857 250.205 350.176 247.189C339.062 240.385 330.735 231.878 326.677 220.763C323.996 217.748 324.268 213.112 327.283 210.431L350.72 189.591C353.736 186.909 358.371 187.181 361.053 190.197L384.551 216.623C387.233 219.638 386.961 224.273 383.945 226.955V226.955ZM327.948 211.178C325.344 213.493 325.109 217.495 327.425 220.099C332.622 230.643 340.636 239.332 350.923 246.525C353.238 249.129 357.24 249.363 359.844 247.048L383.28 226.208C385.884 223.893 386.119 219.891 383.804 217.287L360.305 190.861C357.99 188.257 353.988 188.023 351.385 190.338L327.948 211.178Z" fill="#3F3D56"/>
<path d="M362.639 207.763L343.328 224.934C342.509 225.663 341.25 225.589 340.521 224.77C339.793 223.951 339.867 222.692 340.686 221.964L359.997 204.792C360.816 204.064 362.075 204.138 362.803 204.957C363.532 205.776 363.458 207.035 362.639 207.763V207.763Z" fill="#6C63FF"/>
<path d="M369.948 215.983L350.637 233.155C349.818 233.883 348.559 233.809 347.831 232.99C347.103 232.171 347.176 230.912 347.996 230.184L367.306 213.012C368.125 212.284 369.384 212.358 370.113 213.177C370.841 213.996 370.767 215.255 369.948 215.983V215.983Z" fill="#6C63FF"/>
<path d="M355.329 199.543L336.018 216.714C335.199 217.443 333.94 217.369 333.212 216.55C332.484 215.731 332.557 214.472 333.377 213.743L352.687 196.572C353.506 195.844 354.765 195.917 355.494 196.737C356.222 197.556 356.148 198.815 355.329 199.543Z" fill="#6C63FF"/>
<path d="M114.295 329.693H82.933C78.8973 329.693 75.6141 326.41 75.6141 322.374V287.012C75.6141 282.976 78.8973 279.693 82.933 279.693H114.295C118.331 279.693 121.614 282.976 121.614 287.012V322.374C121.614 326.41 118.331 329.693 114.295 329.693Z" fill="white"/>
<path d="M114.295 329.693H82.933C78.8973 329.693 75.6141 326.41 75.6141 322.374C72.8336 310.722 73.0642 298.923 75.6141 287.012C75.6141 282.976 78.8973 279.693 82.933 279.693H114.295C118.331 279.693 121.614 282.976 121.614 287.012V322.374C121.614 326.41 118.331 329.693 114.295 329.693ZM82.933 280.693C79.4486 280.693 76.6141 283.527 76.6141 287.012V322.374C76.6141 325.858 79.4486 328.693 82.933 328.693H114.295C117.78 328.693 120.614 325.858 120.614 322.374V287.012C120.614 283.527 117.78 280.693 114.295 280.693H82.933Z" fill="#3F3D56"/>
<path d="M111.126 301.193H85.2851C84.1891 301.193 83.2974 300.301 83.2974 299.205C83.2974 298.109 84.1891 297.217 85.2851 297.217H111.126C112.222 297.217 113.114 298.109 113.114 299.205C113.114 300.301 112.222 301.193 111.126 301.193H111.126Z" fill="#6C63FF"/>
</g>
<defs>
<clipPath id="clip0_3_7">
<rect width="655.23" height="504.543" fill="white"/>
</clipPath>
</defs>
</svg>
